# xmcd
#
# Track frame offsets:
#	150
#	12060
#	23610
#	39400
#	52222
#	66370
#	86105
#	103177
#	118922
#	134295
#	147507
#	162322
#	178295
#	193550
#	205680
#	219405
#	233212
#	246685
#	261267
#	278715
#
# Disc length: 3916
#
# Revision: 1
# Processed by: cddbd v1.5.1PL0 Copyright (c) Steve Scherf et al.
# Submitted via: EasyCDDAExtractor 8.0.2.1
# Normalized: r0:DSETVAR1
#
DISCID=350f4a14
DTITLE=Various Artist - Vive La Chanson - Franse Wereldsuccessen CD1
DYEAR=2002
DGENRE=Chanson
TTITLE0=Joe Dassin - Les Champs-Elysees
TTITLE1=Brigitte Bardot - La Madrague
TTITLE2=Danyel gerard - Butterfly
TTITLE3=Frida Boccara - Cent Mille Chansons
TTITLE4=Yves Montand - Les Feuilles Mortes
TTITLE5=Liesbeth List - Milord
TTITLE6=Gerard Lenorman - Voici Les Cles
TTITLE7=Nana Mouskouri - Mon Enfant
TTITLE8=Dave - Dansez Maintenant
TTITLE9=Manhattan Transfer - Chanson d'Amour
TTITLE10=Marc Hamilton - Comme J'ai Toujours Envie d'Aimer
TTITLE11=Vicky Leandros - Apres Toi
TTITLE12=Michel Delpech - Pour Un Flirt
TTITLE13=Barbara - Gottingen
TTITLE14=Philippe Elan - L'ame Des Poetes
TTITLE15=Rika Zarai - Alors Je Chante
TTITLE16=Dave - Du Cote De Chez Swann
TTITLE17=Patachou - Brave Margot
TTITLE18=Jacques Brel - Ne Me Quitte pas
TTITLE19=Herve Vilard - Capri C'est Fini
EXTD=
EXTT0=
EXTT1=
EXTT2=
EXTT3=
EXTT4=
EXTT5=
EXTT6=
EXTT7=
EXTT8=
EXTT9=
EXTT10=
EXTT11=
EXTT12=
EXTT13=
EXTT14=
EXTT15=
EXTT16=
EXTT17=
EXTT18=
EXTT19=
PLAYORDER=
